<svg width="239" height="32" viewBox="0 0 239 32" fill="none" xmlns="http://www.w3.org/2000/svg">
    <g clip-path="url(#clip0_5994_41112)">
        <path
            d="M226.391 28.5711V13.6648L225.319 10.1897H230.312L231.384 13.3342C232.272 11.0779 234.083 9.82178 236.71 9.82178C237.486 9.82178 238.228 9.96837 238.783 10.1552V15.1853C238.19 15.0013 237.527 14.8892 236.785 14.8892C233.16 14.8892 231.571 17.4043 231.571 20.8075V28.574H226.394L226.391 28.5711Z"
            fill="#050A52" />
        <path
            d="M223.902 19.103C223.902 13.6302 220.536 9.81885 215.36 9.81885C209.404 9.81885 205.854 14.2568 205.854 19.4709C205.854 24.6849 209.367 28.9016 215.101 28.9016C218.984 28.9016 221.462 27.6081 223.201 25.3891L219.798 22.5407C218.763 23.8715 217.357 24.6849 215.472 24.6849C212.919 24.6849 211.442 23.2046 211.109 20.8764H223.83C223.868 20.2843 223.905 19.7296 223.905 19.1001L223.902 19.103ZM218.651 17.6227H211.106C211.439 15.2916 212.623 13.9234 215.173 13.9234C217.504 13.9234 218.613 15.625 218.648 17.6227H218.651Z"
            fill="#050A52" />
        <path
            d="M188.223 28.5708H181.825L176.24 10.1895H182.009L185.521 23.6126L188.703 13.1845L187.777 10.1895H193.288L197.024 23.65L200.462 10.1895H205.9L200.241 28.5708H193.88L191.106 19.8041L188.223 28.5708Z"
            fill="#050A52" />
        <path
            d="M176.108 19.103C176.108 13.6302 172.779 9.81885 167.565 9.81885C161.684 9.81885 158.134 14.2568 158.134 19.4709C158.134 24.6849 161.575 28.9016 167.381 28.9016C171.264 28.9016 173.705 27.6081 175.481 25.3891L172.078 22.5407C171.006 23.8715 169.638 24.6849 167.752 24.6849C165.2 24.6849 163.685 23.2046 163.351 20.8764H176.036C176.111 20.2843 176.111 19.7296 176.111 19.1001L176.108 19.103ZM170.894 17.6227H163.348C163.682 15.2916 164.901 13.9234 167.453 13.9234C169.747 13.9234 170.856 15.625 170.894 17.6227Z"
            fill="#050A52" />
        <path
            d="M150.638 10.1896V28.571H155.852V10.1896H150.638ZM153.265 2.79395C155.338 2.79395 156.335 4.16213 156.335 5.9011C156.335 7.64008 155.338 8.89616 153.265 8.89616C151.193 8.89616 150.158 7.56535 150.158 5.9011C150.158 4.23686 151.193 2.79395 153.265 2.79395Z"
            fill="#050A52" />
        <path
            d="M133.404 28.5708L124.824 3.49512H130.889L136.657 22.7992L142.722 3.49512H148.419L139.802 28.5708H133.404Z"
            fill="#050A52" />
        <path d="M45.518 28.5396V8.23527H37.0875V3.46387H59.3493V8.23527H50.9562V28.5396H45.518Z"
            fill="#050A52" />
        <path
            d="M73.4795 19.0717C73.4795 13.599 70.0044 9.7876 64.8249 9.7876C58.9066 9.7876 55.3942 14.2256 55.3942 19.4396C55.3942 24.6537 58.8692 28.8703 64.6783 28.8703C68.5615 28.8703 71.0392 27.5769 72.7408 25.3579L69.3376 22.5094C68.3402 23.8402 66.8973 24.6537 64.9743 24.6537C62.4593 24.6537 60.979 23.1734 60.6829 20.8452H73.3674C73.4048 20.2531 73.4795 19.6983 73.4795 19.0688V19.0717ZM60.6829 17.5914C60.979 15.2603 62.2006 13.8922 64.7156 13.8922C67.0841 13.8922 68.1562 15.5938 68.2281 17.5914H60.6829Z"
            fill="#050A52" />
        <path
            d="M94.5225 25.0245V10.1584H89.9724V12.1935H89.9351C88.6416 10.7879 86.7905 9.79053 84.3129 9.79053C79.0241 9.79053 75.3995 13.8951 75.3995 19.4052C75.3995 24.9153 79.0241 28.8733 84.3129 28.8733C86.7905 28.8733 88.6387 28.0598 89.9351 26.6543H89.9724L90.5645 28.5398H95.6694L94.5225 25.0274V25.0245ZM85.3131 24.5819C82.3554 24.5819 80.8004 22.2163 80.8004 19.2931C80.8004 16.6659 82.3181 14.1164 85.3131 14.1164C88.3082 14.1164 89.8632 16.7062 89.8632 19.2931C89.8632 22.2134 88.5697 24.5819 85.3131 24.5819Z"
            fill="#050A52" />
        <path
            d="M106.986 14.5217C104.951 14.5217 103.841 16.1112 103.841 18.4423V28.5398H98.6271V13.6335L97.5176 10.1584H102.622L103.511 13.0069C104.361 11.1961 106.063 9.79053 108.837 9.79053C111.056 9.79053 112.608 10.8627 113.496 12.6016C114.718 10.9748 116.603 9.79053 119.377 9.79053C123.74 9.79053 125.367 13.0443 125.367 17.557V28.5398H120.153V18.221C120.153 15.7433 119.598 14.5217 117.713 14.5217C115.827 14.5217 114.606 16.1112 114.606 18.4423V28.5772H109.429V18.221C109.429 15.7433 108.837 14.5217 106.989 14.5217H106.986Z"
            fill="#050A52" />
        <path
            d="M27.2635 0H4.73648C2.12107 0 0 2.12107 0 4.73648V27.2635C0 29.8789 2.12107 32 4.73648 32H27.2635C29.8789 32 32 29.8789 32 27.2635V4.73648C32 2.12107 29.8789 0 27.2635 0ZM16 28.8615C8.89528 28.8615 3.13562 23.1019 3.13562 15.9971C3.13562 8.8924 8.89528 3.13562 16 3.13562C23.1047 3.13562 28.8644 8.89528 28.8644 16C28.8644 23.1047 23.1047 28.8644 16 28.8644V28.8615Z"
            fill="#050A52" />
        <path
            d="M26.8928 15.9971L18.5924 11.4618L19.5064 14.3215H12.4936L13.4047 11.4618L5.10437 16L13.4047 20.5382L12.4936 17.6756H19.5064L18.5924 20.5382L26.8928 15.9971Z"
            fill="#050A52" />
    </g>
    <defs>
        <clipPath id="clip0_5994_41112">
            <rect width="238.78" height="32" fill="white" />
        </clipPath>
    </defs>
</svg>
    